<svg xmlns="http://www.w3.org/2000/svg" xmlns:xlink="http://www.w3.org/1999/xlink" width="139" height="158" version="1.1" viewBox="0 0 139 158"><title>head</title><desc>Created with Sketch.</desc><g id="Page-1" fill="none" fill-rule="evenodd" stroke="none" stroke-width="1"><g id="Artboard" transform="translate(-3.000000, -7.000000)"><g id="head" transform="translate(3.000000, 7.000000)"><polygon id="chick-right" fill="#41B883" fill-rule="nonzero" points="102.296 72.183 91.464 69.777 99.889 81.808 99.889 119.102 128.772 95.041 128.772 54.137 115.534 58.95"/><polygon id="chick-left" fill="#41B883" fill-rule="nonzero" points="19.256 72.183 8.424 69.777 16.849 81.808 16.849 119.102 45.732 95.041 45.732 54.137 32.494 58.95" transform="translate(27.078259, 86.619842) scale(-1, 1) translate(-27.078259, -86.619842)"/><polygon id="mask" fill="#41B883" points="40.918 84.214 50.546 69.777 56.563 73.386 80.633 73.386 86.65 69.777 96.278 84.214 96.278 138.351 89.057 149.179 80.633 157.6 56.563 157.6 48.139 149.179 40.918 138.351"/><polygon id="bottom-chick-right" fill="#41B883" fill-rule="nonzero" points="99.889 141.96 115.534 126.321 115.534 110.681 99.889 123.914"/><polygon id="bottom-chick-left" fill="#41B883" fill-rule="nonzero" points="21.663 141.96 37.308 126.321 37.308 110.681 21.663 123.914" transform="translate(29.485216, 126.320603) scale(-1, 1) translate(-29.485216, -126.320603)"/><path fill="#455C71" d="M89.4422148,12.342 L93.8712988,22.8580139 L79.4295605,68.5740417 L71.0052132,68.5740417 L71.0042148,56.994 L89.4422148,12.342 Z M48.1982148,11.287 L66.1912148,57.769 L66.1913004,68.5740417 L58.9704313,68.5740417 L43.3252148,22.8580139 L48.1982148,11.287 Z M66.1913004,0 L66.1912148,46.688 L59.3732148,29.074 L61.3773876,30.0763341 L61.3773876,0 L66.1913004,0 Z M75.8191259,1.91846539e-13 L75.8191259,30.0763341 L78.3042148,28.833 L71.0042148,46.513 L71.0052132,0 L75.8191259,1.91846539e-13 Z M84.2434732,0 L87.2562148,7.154 L80.6322148,23.196 L80.6330387,1.91846539e-13 L84.2434732,0 Z M56.5634749,0 L56.5632148,21.816 L50.4332148,5.981 L52.9530403,0 L56.5634749,0 Z"/><path id="head-right-2" fill="#41B883" fill-rule="nonzero" d="M138.399992,19.2488538 L131.179123,49.3251879 L79.4295605,68.5740417 L78.2260823,68.5740417 L92.6678206,22.8580139 L138.399992,19.2488538 Z M0,19.2488538 L44.528693,22.8580139 L60.1739095,68.5740417 L58.9704313,68.5740417 L7.22086913,49.3251879 L0,19.2488538 Z"/><polygon id="ear-right" fill="#455C71" fill-rule="nonzero" points="96.278 19.249 121.551 16.843 104.703 0 87.854 0"/><polygon id="ear-left" fill="#455C71" fill-rule="nonzero" points="24.07 19.249 49.343 16.843 32.494 0 15.645 0" transform="translate(32.493911, 9.624427) scale(-1, 1) translate(-32.493911, -9.624427)"/><polygon id="Path-2" fill="#455C71" fill-rule="nonzero" points="18.8 20.8 44.8 22.8 60.4 68.6 58.8 68.6 42 62.4"/><polygon id="Path-3" fill="#455C71" fill-rule="nonzero" points="119.2 20.8 92.4 22.8 77.6 68.6 79.6 68.56 95.2 62.8"/><polygon id="Path-4" fill="#455C71" fill-rule="nonzero" points="48.4 72.8 50.4 69.6 57.2 72.8 81.2 72.8 86.4 69.6 88.8 72.8 68.6 107.2"/><path id="Path-6" fill="#41B883" fill-rule="nonzero" d="M90.2104053,-1.0658141e-14 L68.485709,52.6144989 L48.1188062,-1.0658141e-14 L90.2104053,-1.0658141e-14 Z"/></g></g></g></svg>